<svg xmlns="http://www.w3.org/2000/svg" xmlns:xlink="http://www.w3.org/1999/xlink" id="Layer_1" x="0px" y="0px" viewBox="0 0 191 80" style="enable-background:new 0 0 191 80;" xml:space="preserve"><style type="text/css">	.st0{fill:#FFFFFF;}</style><g>	<g>		<path class="st0" d="M74.4,37.2L84.2,21l4.2,7.4L78.1,45.7L74.4,37.2L74.4,37.2z M26.8,57.4H0.1v3.3h28.7L58.2,8.3L70.7,37   L49.1,72.5H22.4v3.3H51l21.3-35.1l3.7,8.4L58.9,77.6l1.9,1.1L106,3.6l-1.9-1.1L90.4,25.2l-6-10.7l-11.6,19L58.6,0.9L26.8,57.4   L26.8,57.4z"></path>		<path class="st0" d="M102.1,57.4h6.4v5.4H98.3V25.1h3.8C102.1,25.1,102.1,57.4,102.1,57.4z"></path>		<path class="st0" d="M123.2,62.8h-3.9l-0.8-8.6h-4.2l-0.8,8.6h-3.8l4.4-37.7h4.9L123.2,62.8z M116.3,33.2l-1.6,15.9h3.2   L116.3,33.2C116.3,33.2,116.3,33.2,116.3,33.2z"></path>		<path class="st0" d="M143.8,33.6v3.7h-3.7v-3.1c0-3-0.8-4.4-2.2-4.4s-2.2,1.4-2.2,3.8v20.6c0,2.5,0.8,3.8,2.2,3.8s2.2-1.4,2.2-4.4   v-4.2h3.7v4.8c0,5.7-2.2,9-6,9s-5.9-3.3-5.9-9V33.6c0-5.7,2.2-9,5.9-9C141.6,24.6,143.8,27.9,143.8,33.6"></path>		<path class="st0" d="M150.9,25.1h-3.8v37.7h3.8V25.1z"></path>		<path class="st0" d="M172.3,62.8h-3.8V36.6h-0.1l-4.3,25.9h-2.3l-4.3-25.9h-0.1v26.2h-3.6V25.1h5l4.1,26.5h0.1l4.1-26.5h5.2   L172.3,62.8L172.3,62.8z"></path>		<path class="st0" d="M187.5,62.8h-3.9l-0.8-8.6h-4.2l-0.8,8.6H174l4.4-37.7h4.9L187.5,62.8z M180.6,33.2L179,49.1h3.2L180.6,33.2   C180.6,33.2,180.6,33.2,180.6,33.2z"></path>		<path class="st0" d="M103.9,78.2v1h-6.1v-8.4h6v1.1h-4.7v2.6h4.2v1h-4.2v2.7C99.1,78.2,103.9,78.2,103.9,78.2z"></path>		<path class="st0" d="M110.1,78.8c-0.7-0.4-1.2-0.9-1.6-1.5s-0.6-1.4-0.6-2.2c0-0.8,0.2-1.5,0.6-2.2c0.4-0.6,0.9-1.2,1.6-1.5   c0.7-0.4,1.4-0.6,2.3-0.6c0.8,0,1.3,0.1,1.8,0.3c0.5,0.2,1,0.5,1.4,1l-0.8,0.8c-0.6-0.7-1.4-1-2.4-1c-0.9,0-1.2,0.2-1.7,0.4   c-0.5,0.3-0.9,0.7-1.2,1.2c-0.3,0.5-0.4,1.1-0.4,1.7s0.2,1.2,0.4,1.7c0.3,0.5,0.7,0.9,1.2,1.2c0.5,0.3,1.1,0.4,1.7,0.4   c0.9,0,1.7-0.3,2.4-1l0.8,0.8c-0.4,0.4-0.9,0.8-1.4,1c-0.6,0.2-1.2,0.3-1.8,0.3C111.8,79.3,110.8,79.1,110.1,78.8"></path>		<path class="st0" d="M121.5,78.8c-0.7-0.4-1.2-0.9-1.6-1.5c-0.4-0.7-0.6-1.4-0.6-2.2c0-0.8,0.2-1.5,0.6-2.2s0.9-1.2,1.6-1.5   c0.7-0.4,1.4-0.6,2.3-0.6s1.6,0.2,2.3,0.6c0.7,0.4,1.2,0.9,1.6,1.5s0.6,1.4,0.6,2.2c0,0.8-0.2,1.5-0.6,2.2   c-0.4,0.6-0.9,1.2-1.6,1.5c-0.7,0.4-1.4,0.6-2.3,0.6C122.9,79.3,122.1,79.1,121.5,78.8z M125.4,77.9c0.5-0.3,0.9-0.7,1.2-1.2   c0.3-0.5,0.4-1.1,0.4-1.7s-0.2-1.2-0.4-1.7c-0.3-0.5-0.7-0.9-1.2-1.2c-0.5-0.3-1.1-0.4-1.7-0.4s-1.2,0.2-1.7,0.4   c-0.5,0.3-0.9,0.7-1.2,1.2c-0.3,0.5-0.4,1.1-0.4,1.7s0.2,1.2,0.4,1.7c0.3,0.5,0.7,0.9,1.2,1.2c0.5,0.3,1.1,0.4,1.7,0.4   S124.9,78.1,125.4,77.9z"></path>		<path class="st0" d="M146.2,70.8v8.4H145v-3.7h-4.9v3.7H139v-8.4h1.2v3.6h4.9v-3.6H146.2z"></path>		<path class="st0" d="M153.1,78.8c-0.7-0.4-1.2-0.9-1.6-1.5c-0.4-0.7-0.6-1.4-0.6-2.2c0-0.8,0.2-1.5,0.6-2.2   c0.4-0.7,0.9-1.2,1.6-1.5s1.4-0.6,2.3-0.6c0.9,0,1.6,0.2,2.3,0.6s1.2,0.9,1.6,1.5c0.4,0.6,0.6,1.4,0.6,2.2c0,0.8-0.2,1.5-0.6,2.2   c-0.4,0.6-0.9,1.2-1.6,1.5c-0.7,0.4-1.4,0.6-2.3,0.6S153.8,79.1,153.1,78.8z M157.1,77.9c0.5-0.3,0.9-0.7,1.2-1.2s0.4-1.1,0.4-1.7   s-0.2-1.2-0.4-1.7c-0.3-0.5-0.7-0.9-1.2-1.2c-0.5-0.3-1.1-0.4-1.7-0.4s-1.2,0.2-1.7,0.4c-0.5,0.3-0.9,0.7-1.2,1.2   s-0.4,1.1-0.4,1.7s0.2,1.2,0.4,1.7c0.3,0.5,0.7,0.9,1.2,1.2s1.1,0.4,1.7,0.4S156.6,78.1,157.1,77.9z"></path>		<path class="st0" d="M166.1,71.9h-2.9v-1.1h7v1.1h-2.9v7.4h-1.2L166.1,71.9L166.1,71.9z"></path>		<path class="st0" d="M180.4,78.2v1h-6.1v-8.4h6v1.1h-4.8v2.6h4.2v1h-4.2v2.7C175.5,78.2,180.4,78.2,180.4,78.2z"></path>		<path class="st0" d="M185.2,70.8h1.2v7.4h4.6v1h-5.8V70.8z"></path>	</g></g></svg>